<?xml version="1.0" encoding="UTF-8" standalone="no"?>
<!DOCTYPE svg PUBLIC "-//W3C//DTD SVG 1.1//EN" "http://www.w3.org/Graphics/SVG/1.1/DTD/svg11.dtd">
<svg xmlns="http://www.w3.org/2000/svg" version="1.1" viewBox="0.00 0.00 32.00 32.00">
<path fill="#e3e3e3" d="
  M 27.94 16.00
  A 11.94 11.94 0.0 0 1 16.00 27.94
  A 11.94 11.94 0.0 0 1 4.06 16.00
  A 11.94 11.94 0.0 0 1 16.00 4.06
  A 11.94 11.94 0.0 0 1 27.94 16.00
  Z
  M 17.29 14.25
  L 16.78 5.77
  A 0.55 0.54 -89.4 0 0 16.29 5.26
  Q 15.72 5.21 15.42 5.52
  Q 15.11 5.83 15.13 6.55
  Q 15.22 11.38 14.10 16.06
  Q 13.97 16.59 14.28 17.03
  Q 15.45 18.70 17.21 17.58
  Q 17.65 17.30 18.18 17.25
  L 24.38 16.74
  A 0.75 0.75 0.0 0 0 24.38 15.25
  L 17.75 14.72
  Q 17.32 14.69 17.29 14.25
  Z"
/>
</svg>
